<svg xmlns="http://www.w3.org/2000/svg" enable-background="new 0 0 512 512" viewBox="0 0 512 512" id="like">
  <g>
    <g>
      <g>
        <path d="M48.2,460.15c-26.58,0-48.2-21.62-48.2-48.2V188.49c0-26.58,21.62-48.2,48.2-48.2s48.2,21.62,48.2,48.2v223.46
				C96.39,438.53,74.77,460.15,48.2,460.15z M48.2,168.63c-10.95,0-19.86,8.91-19.86,19.86v223.46c0,10.95,8.91,19.86,19.86,19.86
				s19.86-8.91,19.86-19.86V188.49C68.05,177.54,59.15,168.63,48.2,168.63z"></path>
      </g>
    </g>
    <g>
      <g>
        <path d="M385.29,459.95h-183.2c-40.62,0-73.66-33.05-73.66-73.66V214.15c0-30.91,33.7-62.72,37.54-66.25
				c0.27-0.25,0.56-0.49,0.85-0.72l105.31-82.34c8.71-8.38,20.13-12.99,32.25-12.99c12.43,0,24.13,4.85,32.93,13.64
				c8.79,8.77,13.63,20.46,13.63,32.92c0,4.29,0,8.72-23.07,51.98c-3.39,6.36-6.8,12.65-9.87,18.26l34.28,0
				c4.4,0,8.75-0.01,13.05-0.02c38.55-0.08,71.84-0.17,97.4,6.75c32.11,8.69,48.69,28.42,49.27,58.64
				c0.4,20.99-11.45,73.8-35.24,156.96c-5.73,20.03-17.55,37.25-34.19,49.79C425.93,453.33,406.12,459.95,385.29,459.95z
				 M184.74,169.14c-10.97,10.24-27.97,31.17-27.97,45.01v172.14c0,24.99,20.33,45.32,45.32,45.32h183.2
				c29.66,0,56.06-19.91,64.22-48.41c22.04-77.05,34.49-131.22,34.15-148.62c-0.66-34.45-34.73-37.78-118.27-37.6
				c-4.32,0.01-8.69,0.02-13.11,0.02h-58.32c-7.83,0-14.17-6.34-14.17-14.17c0-2.43,0.64-4.85,1.83-6.96
				c18.15-32.32,37.96-69.73,40.94-78.69c-0.29-4.41-2.14-8.5-5.28-11.63c-3.46-3.46-8.03-5.36-12.9-5.36
				c-4.86,0-9.43,1.9-12.87,5.34c-0.41,0.41-0.84,0.79-1.3,1.15L184.74,169.14z"></path>
      </g>
    </g>
  </g>
</svg>
