<svg height="20" width="20" xmlns="http://www.w3.org/2000/svg" viewBox="0 0 192 192"><radialGradient id="a" cy="0%" gradientTransform="matrix(0 1 -1.26314 0 .5 -.5)" r="100%"><stop offset="0" stop-color="#fce16b"></stop><stop offset=".11" stop-color="#fce16b"></stop><stop offset=".205" stop-color="#fce06a"></stop><stop offset=".288" stop-color="#fcdf69"></stop><stop offset=".36" stop-color="#fcdd68"></stop><stop offset=".424" stop-color="#fbda66"></stop><stop offset=".483" stop-color="#fbd764"></stop><stop offset=".537" stop-color="#fbd361"></stop><stop offset=".591" stop-color="#facf5e"></stop><stop offset=".644" stop-color="#fac959"></stop><stop offset=".701" stop-color="#f9c254"></stop><stop offset=".763" stop-color="#f8bb4e"></stop><stop offset=".832" stop-color="#f8b147"></stop><stop offset=".91" stop-color="#f7a73d"></stop><stop offset="1" stop-color="#f69a31"></stop></radialGradient><radialGradient id="b" cy="100%" gradientTransform="matrix(0 -1 1.136 0 -.636 1.5)" r="100%"><stop offset="0" stop-color="#83370e"></stop><stop offset=".226" stop-color="#83370e"></stop><stop offset="1" stop-color="#482213"></stop></radialGradient><radialGradient id="c" cy="0%" gradientTransform="matrix(0 1 -.7355 0 .5 -.5)" r="100%"><stop offset="0" stop-color="#f75b73"></stop><stop offset="1" stop-color="#c51f2d"></stop></radialGradient><filter id="d" height="116.4%" width="112.8%" x="-6.4%" y="-8.2%"><feGaussianBlur in="SourceGraphic" stdDeviation="1"></feGaussianBlur></filter><filter id="e" height="116.4%" width="112.8%" x="-6.4%" y="-8.2%"><feGaussianBlur in="SourceGraphic" stdDeviation="1"></feGaussianBlur></filter><linearGradient id="f" x1="85.463%" y1="19.628%" y2="80.372%"><stop offset="0" stop-color="#222845"></stop><stop offset=".086" stop-color="#222845"></stop><stop offset=".166" stop-color="#232946"></stop><stop offset=".239" stop-color="#232b48"></stop><stop offset=".308" stop-color="#242d4a"></stop><stop offset=".374" stop-color="#262f4c"></stop><stop offset=".438" stop-color="#27314e"></stop><stop offset=".5" stop-color="#283350"></stop><stop offset=".562" stop-color="#293552"></stop><stop offset=".626" stop-color="#2a3754"></stop><stop offset=".692" stop-color="#2b3956"></stop><stop offset=".761" stop-color="#2c3a58"></stop><stop offset=".834" stop-color="#2c3b59"></stop><stop offset=".914" stop-color="#2d3c5a"></stop><stop offset="1" stop-color="#2d3c5a"></stop></linearGradient><g fill="none" fill-rule="evenodd"><circle cx="96" cy="96" fill="url(#a)" r="96"></circle><path d="M96 166c38.66 0 64-31.34 64-70 0-.66-7-13-64-13S32 95.34 32 96c0 38.66 25.34 70 64 70z" fill="url(#b)"></path><path d="M52.272 148.44C60.808 139.232 77.192 133 96 133s35.192 6.231 43.728 15.44C128.75 159.368 113.785 166 96 166s-32.75-6.633-43.728-17.56z" fill="url(#c)"></path><path d="M143.907 39.169c-8.207 2.389-27.788 13.373-30.542 17.594s-.61 9.333 2.895 10.056c9.102 0 24.787 2.671 35.424 7.776 5.94 3.015 9.499-5.293 5.66-7.776-5.597-4.395-14.439-7.194-26.525-8.397.991-3.035 12.582-8.024 18.07-10.617 5.49-2.593 3.226-11.026-4.982-8.636z" fill="#fff3c5" filter="url(#d)" opacity=".449"></path><path d="M64.797 39.169C56.59 41.558 37.01 52.542 34.255 56.763s-.61 9.333 2.895 10.056c9.102 0 24.787 2.671 35.424 7.776 5.94 3.015 9.499-5.293 5.66-7.776-5.597-4.395-14.439-7.194-26.525-8.397.991-3.035 12.583-8.024 18.071-10.617 5.488-2.593 3.225-11.026-4.983-8.636z" fill="#fff3c5" filter="url(#e)" opacity=".449" transform="matrix(-1 0 0 1 112.83 0)"></path><g fill="url(#f)"><path d="M143.907 35.169c-8.207 2.389-27.788 13.373-30.542 17.594s-.61 9.333 2.895 10.056c9.102 0 24.787 2.671 35.424 7.776 5.94 3.015 9.499-5.293 5.66-7.776-5.597-4.395-14.439-7.194-26.525-8.397.991-3.035 12.582-8.024 18.07-10.617 5.49-2.593 3.226-11.026-4.982-8.636zM48.032 35.169c8.208 2.389 27.789 13.373 30.543 17.594s.61 9.333-2.896 10.056c-9.101 0-24.786 2.671-35.423 7.776-5.94 3.015-9.499-5.293-5.66-7.776 5.597-4.395 14.438-7.194 26.525-8.397-.992-3.035-12.583-8.024-18.071-10.617-5.489-2.593-3.225-11.026 4.982-8.636z"></path></g></g></svg>                            