<svg width="264" height="185" viewBox="0 0 264 185" fill="none" xmlns="http://www.w3.org/2000/svg">
<mask id="path-1-inside-1_104_13458" fill="white">
<path d="M0 12C0 5.37257 5.37258 0 12 0H252C258.627 0 264 5.37258 264 12V172.6C264 179.227 258.627 184.6 252 184.6H12C5.37259 184.6 0 179.227 0 172.6V12Z"/>
</mask>
<path d="M12 0.8H252V-0.8H12V0.8ZM263.2 12V172.6H264.8V12H263.2ZM252 183.8H12V185.4H252V183.8ZM0.8 172.6V12H-0.8V172.6H0.8ZM12 183.8C5.81441 183.8 0.8 178.786 0.8 172.6H-0.8C-0.8 179.669 4.93076 185.4 12 185.4V183.8ZM263.2 172.6C263.2 178.786 258.186 183.8 252 183.8V185.4C259.069 185.4 264.8 179.669 264.8 172.6H263.2ZM252 0.8C258.186 0.8 263.2 5.81441 263.2 12H264.8C264.8 4.93075 259.069 -0.8 252 -0.8V0.8ZM12 -0.8C4.93076 -0.8 -0.8 4.93074 -0.8 12H0.8C0.8 5.8144 5.81441 0.8 12 0.8V-0.8Z" fill="#E9EAEF" mask="url(#path-1-inside-1_104_13458)"/>
<g clip-path="url(#clip0_104_13458)">
<path d="M0.799988 12.8C0.799988 6.17263 6.17257 0.800049 12.8 0.800049H251.2C257.827 0.800049 263.2 6.17263 263.2 12.8V171.8C263.2 178.427 257.827 183.8 251.2 183.8H12.8C6.17257 183.8 0.799988 178.427 0.799988 171.8V12.8Z" fill="#F1F2F5"/>
<g clip-path="url(#clip1_104_13458)">
<rect width="262.4" height="190.45" transform="translate(0.799988 -2.92505)" fill="#F1F2F5"/>
<g clip-path="url(#clip2_104_13458)">
<mask id="mask0_104_13458" style="mask-type:luminance" maskUnits="userSpaceOnUse" x="0" y="-7" width="264" height="191">
<path d="M263.2 -6.7749H0.799988V183.675H263.2V-6.7749Z" fill="white"/>
</mask>
<g mask="url(#mask0_104_13458)">
<path d="M263.2 -6.7749H0.799988V183.675H263.2V-6.7749Z" fill="#F3F4F8"/>
<path d="M104.128 99.6868C110.466 99.6868 115.605 94.6996 115.605 88.5475C115.605 82.3954 110.466 77.4082 104.128 77.4082C97.7894 77.4082 92.651 82.3954 92.651 88.5475C92.651 94.6996 97.7894 99.6868 104.128 99.6868Z" fill="black"/>
<path d="M144.635 62.5557H138.559C135.203 62.5557 132.483 59.8354 132.483 56.4797C132.483 53.124 135.203 50.4037 138.559 50.4037H144.635C147.991 50.4037 150.711 53.124 150.711 56.4797C150.711 59.8354 147.991 62.5557 144.635 62.5557Z" fill="#A9A3F9"/>
<path d="M163.538 94.2859H156.787C153.431 94.2859 150.711 91.5656 150.711 88.2099C150.711 84.8542 153.431 82.1339 156.787 82.1339H163.538C166.894 82.1339 169.614 84.8542 169.614 88.2099C169.614 91.5656 166.894 94.2859 163.538 94.2859Z" fill="#8FD14F"/>
<path d="M71.7223 62.5557H64.9712C61.6155 62.5557 58.8951 59.8354 58.8951 56.4797C58.8951 53.124 61.6155 50.4037 64.9712 50.4037H71.7223C75.078 50.4037 77.7984 53.124 77.7984 56.4797C77.7984 59.8354 75.078 62.5557 71.7223 62.5557Z" fill="#FFDD33"/>
<path d="M52.8194 94.2859H46.0682C42.7125 94.2859 39.9922 91.5656 39.9922 88.2099C39.9922 84.8542 42.7125 82.1339 46.0682 82.1339H52.8194C56.1751 82.1339 58.8954 84.8542 58.8954 88.2099C58.8954 91.5656 56.1751 94.2859 52.8194 94.2859Z" fill="#85B8FF"/>
<path d="M68.5674 114.163C68.5674 109.329 68.1775 107.009 69.7377 105.462C71.2983 103.915 72.0786 104.495 81.0521 104.495C90.3911 104.495 98.4133 104.495 101.339 104.495C103.917 104.495 104.265 101.595 104.265 101.595" stroke="black" stroke-width="0.675114"/>
<path d="M140.356 114.163C140.356 109.329 140.746 107.009 139.186 105.462C137.626 103.915 136.845 104.495 127.872 104.495C118.532 104.495 110.511 104.495 107.585 104.495C105.007 104.495 104.659 101.595 104.659 101.595" stroke="black" stroke-width="0.675114"/>
<path d="M104.603 101.988V114.556" stroke="black" stroke-width="0.675114"/>
<path d="M68.5674 62.7119C68.5674 67.5462 68.1775 69.8665 69.7377 71.4134C71.2983 72.9602 72.0786 72.3799 81.0521 72.3799C90.3911 72.3799 98.4133 72.3799 101.339 72.3799C103.917 72.3799 104.265 75.28 104.265 75.28" stroke="black" stroke-width="0.675114"/>
<path d="M140.356 62.7119C140.356 67.5462 140.746 69.8665 139.186 71.4134C137.626 72.9602 136.845 72.3799 127.872 72.3799C118.532 72.3799 110.511 72.3799 107.585 72.3799C105.007 72.3799 104.659 75.28 104.659 75.28" stroke="black" stroke-width="0.675114"/>
<path d="M58.8951 88.5474H150.711" stroke="black" stroke-width="0.675114"/>
<path d="M104.465 101.712V74.708" stroke="black" stroke-width="0.675114"/>
<path d="M129.917 33.5264H118.171C117.499 33.5264 116.955 34.0704 116.955 34.7415V46.4882C116.955 47.1596 117.499 47.7034 118.171 47.7034H129.917C130.589 47.7034 131.132 47.1596 131.132 46.4882V34.7415C131.132 34.0704 130.589 33.5264 129.917 33.5264Z" fill="#ABA3FF"/>
<path d="M144.095 129.392H132.348C131.677 129.392 131.132 129.935 131.132 130.607V141.678C131.132 142.35 131.677 142.893 132.348 142.893H144.095C144.766 142.893 145.31 142.35 145.31 141.678V130.607C145.31 129.935 144.766 129.392 144.095 129.392Z" fill="#45C0B4"/>
<path d="M144.095 148.294H132.348C131.677 148.294 131.132 148.839 131.132 149.509V161.256C131.132 161.927 131.677 162.472 132.348 162.472H144.095C144.766 162.472 145.31 161.927 145.31 161.256V149.509C145.31 148.839 144.766 148.294 144.095 148.294Z" fill="#45C0B4"/>
<path d="M185.952 81.4585H174.205C173.534 81.4585 172.989 82.0029 172.989 82.6737V94.4207C172.989 95.0921 173.534 95.6359 174.205 95.6359H185.952C186.623 95.6359 187.167 95.0921 187.167 94.4207V82.6737C187.167 82.0029 186.623 81.4585 185.952 81.4585Z" fill="#8FD14F"/>
<path d="M42.1525 129.392H30.4055C29.7343 129.392 29.1903 129.935 29.1903 130.607V141.678C29.1903 142.35 29.7343 142.893 30.4055 142.893H42.1525C42.8236 142.893 43.3677 142.35 43.3677 141.678V130.607C43.3677 129.935 42.8236 129.392 42.1525 129.392Z" fill="#FFA557"/>
<path d="M42.1525 148.294H30.4055C29.7343 148.294 29.1903 148.839 29.1903 149.509V161.256C29.1903 161.927 29.7343 162.472 30.4055 162.472H42.1525C42.8236 162.472 43.3677 161.927 43.3677 161.256V149.509C43.3677 148.839 42.8236 148.294 42.1525 148.294Z" fill="#FFA557"/>
<path d="M57.0049 33.5264H45.258C44.5869 33.5264 44.0428 34.0704 44.0428 34.7415V46.4882C44.0428 47.1596 44.5869 47.7034 45.258 47.7034H57.0049C57.6762 47.7034 58.2201 47.1596 58.2201 46.4882V34.7415C58.2201 34.0704 57.6762 33.5264 57.0049 33.5264Z" fill="#FFDD33"/>
<path d="M129.917 15.9734H118.171C117.499 15.9734 116.955 16.5174 116.955 17.1886V28.9355C116.955 29.6066 117.499 30.1507 118.171 30.1507H129.917C130.589 30.1507 131.132 29.6066 131.132 28.9355V17.1886C131.132 16.5174 130.589 15.9734 129.917 15.9734Z" fill="#ABA3FF"/>
<path d="M57.0049 15.9734H45.258C44.5869 15.9734 44.0428 16.5174 44.0428 17.1886V28.9355C44.0428 29.6066 44.5869 30.1507 45.258 30.1507H57.0049C57.6762 30.1507 58.2201 29.6066 58.2201 28.9355V17.1886C58.2201 16.5174 57.6762 15.9734 57.0049 15.9734Z" fill="#FFDD33"/>
<path d="M147.47 33.5264H135.723C135.052 33.5264 134.508 34.0704 134.508 34.7415V46.4882C134.508 47.1596 135.052 47.7034 135.723 47.7034H147.47C148.141 47.7034 148.686 47.1596 148.686 46.4882V34.7415C148.686 34.0704 148.141 33.5264 147.47 33.5264Z" fill="#ABA3FF"/>
<path d="M160.972 129.392H149.226C148.554 129.392 148.011 129.935 148.011 130.607V141.678C148.011 142.35 148.554 142.893 149.226 142.893H160.972C161.644 142.893 162.188 142.35 162.188 141.678V130.607C162.188 129.935 161.644 129.392 160.972 129.392Z" fill="#45C0B4"/>
<path d="M160.972 148.294H149.226C148.554 148.294 148.011 148.839 148.011 149.509V161.256C148.011 161.927 148.554 162.472 149.226 162.472H160.972C161.644 162.472 162.188 161.927 162.188 161.256V149.509C162.188 148.839 161.644 148.294 160.972 148.294Z" fill="#45C0B4"/>
<path d="M203.505 81.4585H191.758C191.087 81.4585 190.543 82.0029 190.543 82.6737V94.4207C190.543 95.0921 191.087 95.6359 191.758 95.6359H203.505C204.176 95.6359 204.72 95.0921 204.72 94.4207V82.6737C204.72 82.0029 204.176 81.4585 203.505 81.4585Z" fill="#8FD14F"/>
<path d="M18.5235 81.4585H6.77647C6.10534 81.4585 5.56128 82.0029 5.56128 82.6737V94.4207C5.56128 95.0921 6.10534 95.6359 6.77647 95.6359H18.5235C19.1946 95.6359 19.7387 95.0921 19.7387 94.4207V82.6737C19.7387 82.0029 19.1946 81.4585 18.5235 81.4585Z" fill="#9BC5FF"/>
<path d="M59.7056 129.392H47.9584C47.2873 129.392 46.7432 129.935 46.7432 130.607V141.678C46.7432 142.35 47.2873 142.893 47.9584 142.893H59.7056C60.3764 142.893 60.9208 142.35 60.9208 141.678V130.607C60.9208 129.935 60.3764 129.392 59.7056 129.392Z" fill="#FFA557"/>
<path d="M59.7056 148.294H47.9584C47.2873 148.294 46.7432 148.839 46.7432 149.509V161.256C46.7432 161.927 47.2873 162.472 47.9584 162.472H59.7056C60.3764 162.472 60.9208 161.927 60.9208 161.256V149.509C60.9208 148.839 60.3764 148.294 59.7056 148.294Z" fill="#FFA557"/>
<path d="M101.563 129.392H90.4905C89.8197 129.392 89.2753 129.935 89.2753 130.607V141.678C89.2753 142.35 89.8197 142.893 90.4905 142.893H101.563C102.233 142.893 102.778 142.35 102.778 141.678V130.607C102.778 129.935 102.233 129.392 101.563 129.392Z" fill="#E598B2"/>
<path d="M101.563 147.62H90.4905C89.8197 147.62 89.2753 148.163 89.2753 148.835V160.581C89.2753 161.253 89.8197 161.797 90.4905 161.797H101.563C102.233 161.797 102.778 161.253 102.778 160.581V148.835C102.778 148.163 102.233 147.62 101.563 147.62Z" fill="#E598B2"/>
<path d="M74.5582 33.5264H62.811C62.1397 33.5264 61.5959 34.0704 61.5959 34.7415V46.4882C61.5959 47.1596 62.1397 47.7034 62.811 47.7034H74.5582C75.229 47.7034 75.7734 47.1596 75.7734 46.4882V34.7415C75.7734 34.0704 75.229 33.5264 74.5582 33.5264Z" fill="#FFDD33"/>
<path d="M147.47 15.9734H135.723C135.052 15.9734 134.508 16.5174 134.508 17.1886V28.9355C134.508 29.6066 135.052 30.1507 135.723 30.1507H147.47C148.141 30.1507 148.686 29.6066 148.686 28.9355V17.1886C148.686 16.5174 148.141 15.9734 147.47 15.9734Z" fill="#ABA3FF"/>
<path d="M74.5582 15.9734H62.811C62.1397 15.9734 61.5959 16.5174 61.5959 17.1886V28.9355C61.5959 29.6066 62.1397 30.1507 62.811 30.1507H74.5582C75.229 30.1507 75.7734 29.6066 75.7734 28.9355V17.1886C75.7734 16.5174 75.229 15.9734 74.5582 15.9734Z" fill="#FFDD33"/>
<path d="M165.023 33.5264H153.276C152.605 33.5264 152.061 34.0704 152.061 34.7415V46.4882C152.061 47.1596 152.605 47.7034 153.276 47.7034H165.023C165.695 47.7034 166.238 47.1596 166.238 46.4882V34.7415C166.238 34.0704 165.695 33.5264 165.023 33.5264Z" fill="#ABA3FF"/>
<path d="M178.526 129.392H166.779C166.107 129.392 165.563 129.935 165.563 130.607V141.678C165.563 142.35 166.107 142.893 166.779 142.893H178.526C179.197 142.893 179.741 142.35 179.741 141.678V130.607C179.741 129.935 179.197 129.392 178.526 129.392Z" fill="#45C0B4"/>
<path d="M178.526 148.294H166.779C166.107 148.294 165.563 148.839 165.563 149.509V161.256C165.563 161.927 166.107 162.472 166.779 162.472H178.526C179.197 162.472 179.741 161.927 179.741 161.256V149.509C179.741 148.839 179.197 148.294 178.526 148.294Z" fill="#45C0B4"/>
<path d="M220.383 81.4585H208.636C207.965 81.4585 207.42 82.0029 207.42 82.6737V94.4207C207.42 95.0921 207.965 95.6359 208.636 95.6359H220.383C221.054 95.6359 221.598 95.0921 221.598 94.4207V82.6737C221.598 82.0029 221.054 81.4585 220.383 81.4585Z" fill="#8FD14F"/>
<path d="M35.4013 81.4585H23.6543C22.9832 81.4585 22.4391 82.0029 22.4391 82.6737V94.4207C22.4391 95.0921 22.9832 95.6359 23.6543 95.6359H35.4013C36.0724 95.6359 36.6165 95.0921 36.6165 94.4207V82.6737C36.6165 82.0029 36.0724 81.4585 35.4013 81.4585Z" fill="#9BC5FF"/>
<path d="M76.5833 129.392H64.8362C64.1653 129.392 63.621 129.935 63.621 130.607V141.678C63.621 142.35 64.1653 142.893 64.8362 142.893H76.5833C77.2547 142.893 77.7985 142.35 77.7985 141.678V130.607C77.7985 129.935 77.2547 129.392 76.5833 129.392Z" fill="#FFA557"/>
<path d="M76.5833 148.294H64.8362C64.1653 148.294 63.621 148.839 63.621 149.509V161.256C63.621 161.927 64.1653 162.472 64.8362 162.472H76.5833C77.2547 162.472 77.7985 161.927 77.7985 161.256V149.509C77.7985 148.839 77.2547 148.294 76.5833 148.294Z" fill="#FFA557"/>
<path d="M119.115 129.392H107.369C106.697 129.392 106.154 129.935 106.154 130.607V141.678C106.154 142.35 106.697 142.893 107.369 142.893H119.115C119.787 142.893 120.331 142.35 120.331 141.678V130.607C120.331 129.935 119.787 129.392 119.115 129.392Z" fill="#E598B2"/>
<path d="M119.115 147.62H107.369C106.697 147.62 106.154 148.163 106.154 148.835V160.581C106.154 161.253 106.697 161.797 107.369 161.797H119.115C119.787 161.797 120.331 161.253 120.331 160.581V148.835C120.331 148.163 119.787 147.62 119.115 147.62Z" fill="#E598B2"/>
<path d="M91.4359 33.5264H79.6888C79.0179 33.5264 78.4736 34.0704 78.4736 34.7415V46.4882C78.4736 47.1596 79.0179 47.7034 79.6888 47.7034H91.4359C92.1067 47.7034 92.6511 47.1596 92.6511 46.4882V34.7415C92.6511 34.0704 92.1067 33.5264 91.4359 33.5264Z" fill="#FFDD33"/>
<path d="M165.023 15.9734H153.276C152.605 15.9734 152.061 16.5174 152.061 17.1886V28.9355C152.061 29.6066 152.605 30.1507 153.276 30.1507H165.023C165.695 30.1507 166.238 29.6066 166.238 28.9355V17.1886C166.238 16.5174 165.695 15.9734 165.023 15.9734Z" fill="#ABA3FF"/>
<path d="M91.4359 15.9734H79.6888C79.0179 15.9734 78.4736 16.5174 78.4736 17.1886V28.9355C78.4736 29.6066 79.0179 30.1507 79.6888 30.1507H91.4359C92.1067 30.1507 92.6511 29.6066 92.6511 28.9355V17.1886C92.6511 16.5174 92.1067 15.9734 91.4359 15.9734Z" fill="#FFDD33"/>
<path d="M71.7223 126.016H64.9712C61.6155 126.016 58.8951 123.296 58.8951 119.94C58.8951 116.585 61.6155 113.864 64.9712 113.864H71.7223C75.078 113.864 77.7984 116.585 77.7984 119.94C77.7984 123.296 75.078 126.016 71.7223 126.016Z" fill="#F2994A"/>
<path d="M143.96 126.016H137.208C133.853 126.016 131.132 123.296 131.132 119.94C131.132 116.585 133.853 113.864 137.208 113.864H143.96C147.315 113.864 150.036 116.585 150.036 119.94C150.036 123.296 147.315 126.016 143.96 126.016Z" fill="#47D1C4"/>
<path d="M107.503 126.016H100.752C97.3966 126.016 94.6762 123.296 94.6762 119.94C94.6762 116.585 97.3966 113.864 100.752 113.864H107.503C110.859 113.864 113.579 116.585 113.579 119.94C113.579 123.296 110.859 126.016 107.503 126.016Z" fill="#E598B2"/>
<g filter="url(#filter0_di_104_13458)">
<path d="M321.515 64.5808H235.1C234.354 64.5808 233.75 65.1853 233.75 65.931V190.826C233.75 191.572 234.354 192.176 235.1 192.176H321.515C322.26 192.176 322.865 191.572 322.865 190.826V65.931C322.865 65.1853 322.26 64.5808 321.515 64.5808Z" fill="white"/>
<path d="M287.911 73.9731H245.316C244.114 73.9731 243.139 74.9477 243.139 76.1499V77.432C243.139 78.6342 244.114 79.6087 245.316 79.6087H287.911C289.114 79.6087 290.088 78.6342 290.088 77.432V76.1499C290.088 74.9477 289.114 73.9731 287.911 73.9731Z" fill="#E8E8EA"/>
<path d="M304.813 83.3655H245.316C244.114 83.3655 243.139 84.34 243.139 85.5422V86.8243C243.139 88.0265 244.114 89.001 245.316 89.001H304.813C306.016 89.001 306.99 88.0265 306.99 86.8243V85.5422C306.99 84.34 306.016 83.3655 304.813 83.3655Z" fill="#E8E8EA"/>
<path d="M269.132 92.7583H245.316C244.114 92.7583 243.139 93.7328 243.139 94.935V96.2172C243.139 97.4193 244.114 98.3939 245.316 98.3939H269.132C270.334 98.3939 271.309 97.4193 271.309 96.2172V94.935C271.309 93.7328 270.334 92.7583 269.132 92.7583Z" fill="#E8E8EA"/>
</g>
<g filter="url(#filter1_di_104_13458)">
<path d="M291.4 15.9734H234.596C234.129 15.9734 233.75 16.3524 233.75 16.8198V58.3339C233.75 58.8014 234.129 59.1804 234.596 59.1804H291.4C291.867 59.1804 292.246 58.8014 292.246 58.3339V16.8198C292.246 16.3524 291.867 15.9734 291.4 15.9734Z" fill="white"/>
<path d="M244.035 41.8985C246.374 41.8985 248.271 40.052 248.271 37.7742C248.271 35.4964 246.374 33.6499 244.035 33.6499C241.695 33.6499 239.799 35.4964 239.799 37.7742C239.799 40.052 241.695 41.8985 244.035 41.8985Z" fill="#E8E8EA"/>
<path d="M256.54 41.8985C258.879 41.8985 260.776 40.052 260.776 37.7742C260.776 35.4964 258.879 33.6499 256.54 33.6499C254.201 33.6499 252.304 35.4964 252.304 37.7742C252.304 40.052 254.201 41.8985 256.54 41.8985Z" fill="#E8E8EA"/>
<path d="M244.035 53.6815C246.374 53.6815 248.271 51.835 248.271 49.5572C248.271 47.2794 246.374 45.4329 244.035 45.4329C241.695 45.4329 239.799 47.2794 239.799 49.5572C239.799 51.835 241.695 53.6815 244.035 53.6815Z" fill="#E8E8EA"/>
<path d="M256.54 53.6815C258.879 53.6815 260.776 51.835 260.776 49.5572C260.776 47.2794 258.879 45.4329 256.54 45.4329C254.201 45.4329 252.304 47.2794 252.304 49.5572C252.304 51.835 254.201 53.6815 256.54 53.6815Z" fill="#E8E8EA"/>
<path d="M270.112 21.8665H241.766C240.681 21.8665 239.802 22.7457 239.802 23.8304C239.802 24.9151 240.681 25.7944 241.766 25.7944H270.112C271.196 25.7944 272.076 24.9151 272.076 23.8304C272.076 22.7457 271.196 21.8665 270.112 21.8665Z" fill="#E8E8EA"/>
</g>
</g>
</g>
</g>
</g>
<defs>
<filter id="filter0_di_104_13458" x="233.052" y="63.8825" width="90.5115" height="132.086" filterUnits="userSpaceOnUse" color-interpolation-filters="sRGB">
<feFlood flood-opacity="0" result="BackgroundImageFix"/>
<feColorMatrix in="SourceAlpha" type="matrix" values="0 0 0 0 0 0 0 0 0 0 0 0 0 0 0 0 0 0 127 0" result="hardAlpha"/>
<feOffset/>
<feGaussianBlur stdDeviation="0.349135"/>
<feComposite in2="hardAlpha" operator="out"/>
<feColorMatrix type="matrix" values="0 0 0 0 0 0 0 0 0 0 0 0 0 0 0 0 0 0 0.03 0"/>
<feBlend mode="normal" in2="BackgroundImageFix" result="effect1_dropShadow_104_13458"/>
<feBlend mode="normal" in="SourceGraphic" in2="effect1_dropShadow_104_13458" result="shape"/>
<feColorMatrix in="SourceAlpha" type="matrix" values="0 0 0 0 0 0 0 0 0 0 0 0 0 0 0 0 0 0 127 0" result="hardAlpha"/>
<feOffset dy="3.79232"/>
<feGaussianBlur stdDeviation="5.68848"/>
<feComposite in2="hardAlpha" operator="arithmetic" k2="-1" k3="1"/>
<feColorMatrix type="matrix" values="0 0 0 0 0 0 0 0 0 0 0 0 0 0 0 0 0 0 0.1 0"/>
<feBlend mode="normal" in2="shape" result="effect2_innerShadow_104_13458"/>
</filter>
<filter id="filter1_di_104_13458" x="233.052" y="15.2751" width="59.8927" height="47.6976" filterUnits="userSpaceOnUse" color-interpolation-filters="sRGB">
<feFlood flood-opacity="0" result="BackgroundImageFix"/>
<feColorMatrix in="SourceAlpha" type="matrix" values="0 0 0 0 0 0 0 0 0 0 0 0 0 0 0 0 0 0 127 0" result="hardAlpha"/>
<feOffset/>
<feGaussianBlur stdDeviation="0.349135"/>
<feComposite in2="hardAlpha" operator="out"/>
<feColorMatrix type="matrix" values="0 0 0 0 0 0 0 0 0 0 0 0 0 0 0 0 0 0 0.03 0"/>
<feBlend mode="normal" in2="BackgroundImageFix" result="effect1_dropShadow_104_13458"/>
<feBlend mode="normal" in="SourceGraphic" in2="effect1_dropShadow_104_13458" result="shape"/>
<feColorMatrix in="SourceAlpha" type="matrix" values="0 0 0 0 0 0 0 0 0 0 0 0 0 0 0 0 0 0 127 0" result="hardAlpha"/>
<feOffset dy="3.79232"/>
<feGaussianBlur stdDeviation="5.68848"/>
<feComposite in2="hardAlpha" operator="arithmetic" k2="-1" k3="1"/>
<feColorMatrix type="matrix" values="0 0 0 0 0 0 0 0 0 0 0 0 0 0 0 0 0 0 0.1 0"/>
<feBlend mode="normal" in2="shape" result="effect2_innerShadow_104_13458"/>
</filter>
<clipPath id="clip0_104_13458">
<path d="M0.799988 12.8C0.799988 6.17263 6.17257 0.800049 12.8 0.800049H251.2C257.827 0.800049 263.2 6.17263 263.2 12.8V171.8C263.2 178.427 257.827 183.8 251.2 183.8H12.8C6.17257 183.8 0.799988 178.427 0.799988 171.8V12.8Z" fill="white"/>
</clipPath>
<clipPath id="clip1_104_13458">
<rect width="262.4" height="190.45" fill="white" transform="translate(0.799988 -2.92505)"/>
</clipPath>
<clipPath id="clip2_104_13458">
<rect width="262.4" height="190.45" fill="white" transform="translate(0.799988 -6.7749)"/>
</clipPath>
</defs>
</svg>
