<svg width="264" height="178" viewBox="0 0 264 178" fill="none" xmlns="http://www.w3.org/2000/svg">
<g clip-path="url(#clip0_166_3188)">
<rect width="262.4" height="190.45" transform="translate(0.800049 -9.02496)" fill="#F1F2F5"/>
<g clip-path="url(#clip1_166_3188)">
<path d="M263.2 -9.02496H0.800049V181.425H263.2V-9.02496Z" fill="#F3F4F8"/>
<path fill-rule="evenodd" clip-rule="evenodd" d="M164.007 78.6032H99.4646C94.8308 78.6032 91.0741 82.3598 91.0741 86.9936C91.0741 91.6273 94.8308 95.384 99.4646 95.384H164.007C168.64 95.384 172.397 91.6273 172.397 86.9936C172.397 82.3598 168.64 78.6032 164.007 78.6032ZM99.4646 70.8582C90.553 70.8582 83.3291 78.0821 83.3291 86.9936C83.3291 95.905 90.553 103.129 99.4646 103.129H164.007C172.918 103.129 180.142 95.905 180.142 86.9936C180.142 78.0821 172.918 70.8582 164.007 70.8582H99.4646Z" fill="#A9A3F9"/>
<path fill-rule="evenodd" clip-rule="evenodd" d="M224.139 64.6221C221.487 65.2913 216.962 67.3323 210.786 73.3526C204.3 79.6755 198.163 83.9776 192.971 86.7846C197.504 88.7748 202.484 91.8627 207.14 96.4954C215.85 105.161 226.545 107.849 230.4 108.114L229.87 115.826C224.471 115.454 211.925 112.157 201.693 101.976C192.987 93.3144 183.181 91.3215 179.923 91.3215L179.613 83.6046C182.372 83.3819 192.732 80.1601 205.396 67.8158C212.283 61.1019 217.964 58.2086 222.251 57.1268C224.393 56.5866 226.14 56.511 227.45 56.6136C228.102 56.6644 228.636 56.7581 229.048 56.8554C229.254 56.9041 229.429 56.9533 229.572 56.9982C229.643 57.0205 229.706 57.0421 229.762 57.0617C229.79 57.0712 229.815 57.0808 229.839 57.0892L229.874 57.1024L229.889 57.1083L229.897 57.1114C229.901 57.1125 229.904 57.1141 228.502 60.7152C227.1 64.3163 227.104 64.3179 227.107 64.3189L227.114 64.3221L227.128 64.3274L227.154 64.3369C227.171 64.3433 227.186 64.3485 227.199 64.3533C227.226 64.3628 227.247 64.3697 227.261 64.3739C227.278 64.3792 227.287 64.3819 227.287 64.3819C227.287 64.3819 227.282 64.3803 227.274 64.3787C227.233 64.3686 227.091 64.3385 226.85 64.3194C226.374 64.2824 225.468 64.2866 224.139 64.6221Z" fill="#85B8FF"/>
<path fill-rule="evenodd" clip-rule="evenodd" d="M39.3315 64.6221C41.9844 65.2913 46.5095 67.3323 52.685 73.3526C59.1714 79.6755 65.3076 83.9776 70.5001 86.7846C65.9668 88.7748 60.987 91.8627 56.331 96.4954C47.6209 105.161 36.9253 107.849 33.071 108.114L33.601 115.826C38.9999 115.454 51.546 112.157 61.7779 101.976C70.4837 93.3144 80.2903 91.3215 83.5476 91.3215L83.8581 83.6046C81.0987 83.3819 70.7387 80.1601 58.0752 67.8158C51.1878 61.1019 45.5072 58.2086 41.2202 57.1268C39.0784 56.5866 37.3313 56.511 36.021 56.6136C35.3693 56.6644 34.835 56.7581 34.423 56.8554C34.2172 56.9041 34.0426 56.9533 33.8996 56.9982C33.8281 57.0205 33.7646 57.0421 33.709 57.0617C33.6813 57.0712 33.6555 57.0808 33.6318 57.0892L33.5976 57.1024L33.5817 57.1083L33.574 57.1114C33.5702 57.1125 33.5665 57.1141 34.9689 60.7152C36.3713 64.3163 36.3677 64.3179 36.364 64.3189L36.3568 64.3221L36.3429 64.3274L36.3169 64.3369C36.3003 64.3433 36.2852 64.3485 36.2717 64.3533C36.2448 64.3628 36.2241 64.3697 36.2096 64.3739C36.1928 64.3792 36.1844 64.3819 36.1844 64.3819C36.1844 64.3819 36.1887 64.3803 36.1974 64.3787C36.2383 64.3686 36.3801 64.3385 36.6213 64.3194C37.097 64.2824 38.0034 64.2866 39.3315 64.6221Z" fill="#88CC6A"/>
</g>
</g>
<defs>
<clipPath id="clip0_166_3188">
<rect width="262.4" height="190.45" fill="white" transform="translate(0.800049 -9.02496)"/>
</clipPath>
<clipPath id="clip1_166_3188">
<rect width="262.4" height="190.45" fill="white" transform="translate(0.800049 -9.02496)"/>
</clipPath>
</defs>
</svg>
