<svg width="100%" height="100%" viewBox="0 0 496 360" fill="none" xmlns="http://www.w3.org/2000/svg"><rect width="496" height="360" fill="#F3F4F8"></rect><g filter="url(#filter0_dd_266_22759)"><path d="M108 93.76C108 91.7438 108 90.7357 108.392 89.9656C108.738 89.2883 109.288 88.7375 109.966 88.3924C110.736 88 111.744 88 113.76 88H216.24C218.256 88 219.264 88 220.034 88.3924C220.712 88.7375 221.262 89.2883 221.608 89.9656C222 90.7357 222 91.7438 222 93.76V172.24C222 174.256 222 175.264 221.608 176.034C221.262 176.712 220.712 177.262 220.034 177.608C219.264 178 218.256 178 216.24 178H113.76C111.744 178 110.736 178 109.966 177.608C109.288 177.262 108.738 176.712 108.392 176.034C108 175.264 108 174.256 108 172.24V93.76Z" fill="white"></path></g><g filter="url(#filter1_dd_266_22759)"><path d="M108 187.76C108 185.744 108 184.736 108.392 183.966C108.738 183.288 109.288 182.738 109.966 182.392C110.736 182 111.744 182 113.76 182H216.24C218.256 182 219.264 182 220.034 182.392C220.712 182.738 221.262 183.288 221.608 183.966C222 184.736 222 185.744 222 187.76V266.24C222 268.256 222 269.264 221.608 270.034C221.262 270.712 220.712 271.262 220.034 271.608C219.264 272 218.256 272 216.24 272H113.76C111.744 272 110.736 272 109.966 271.608C109.288 271.262 108.738 270.712 108.392 270.034C108 269.264 108 268.256 108 266.24V187.76Z" fill="white"></path></g><g filter="url(#filter2_dd_266_22759)"><path d="M228 93.76C228 91.7438 228 90.7357 228.392 89.9656C228.738 89.2883 229.288 88.7375 229.966 88.3924C230.736 88 231.744 88 233.76 88H334.24C336.256 88 337.264 88 338.034 88.3924C338.712 88.7375 339.262 89.2883 339.608 89.9656C340 90.7357 340 91.7438 340 93.76V172.24C340 174.256 340 175.264 339.608 176.034C339.262 176.712 338.712 177.262 338.034 177.608C337.264 178 336.256 178 334.24 178H233.76C231.744 178 230.736 178 229.966 177.608C229.288 177.262 228.738 176.712 228.392 176.034C228 175.264 228 174.256 228 172.24V93.76Z" fill="white"></path></g><g filter="url(#filter3_dd_266_22759)"><path d="M228 187.76C228 185.744 228 184.736 228.392 183.966C228.738 183.288 229.288 182.738 229.966 182.392C230.736 182 231.744 182 233.76 182H334.24C336.256 182 337.264 182 338.034 182.392C338.712 182.738 339.262 183.288 339.608 183.966C340 184.736 340 185.744 340 187.76V266.24C340 268.256 340 269.264 339.608 270.034C339.262 270.712 338.712 271.262 338.034 271.608C337.264 272 336.256 272 334.24 272H233.76C231.744 272 230.736 272 229.966 271.608C229.288 271.262 228.738 270.712 228.392 270.034C228 269.264 228 268.256 228 266.24V187.76Z" fill="white"></path></g><g filter="url(#filter4_dd_266_22759)"><path d="M346 93.76C346 91.7438 346 90.7357 346.392 89.9656C346.738 89.2883 347.288 88.7375 347.966 88.3924C348.736 88 349.744 88 351.76 88H454.24C456.256 88 457.264 88 458.034 88.3924C458.712 88.7375 459.262 89.2883 459.608 89.9656C460 90.7357 460 91.7438 460 93.76V172.24C460 174.256 460 175.264 459.608 176.034C459.262 176.712 458.712 177.262 458.034 177.608C457.264 178 456.256 178 454.24 178H351.76C349.744 178 348.736 178 347.966 177.608C347.288 177.262 346.738 176.712 346.392 176.034C346 175.264 346 174.256 346 172.24V93.76Z" fill="white"></path></g><g filter="url(#filter5_dd_266_22759)"><path d="M346 187.76C346 185.744 346 184.736 346.392 183.966C346.738 183.288 347.288 182.738 347.966 182.392C348.736 182 349.744 182 351.76 182H454.24C456.256 182 457.264 182 458.034 182.392C458.712 182.738 459.262 183.288 459.608 183.966C460 184.736 460 185.744 460 187.76V266.24C460 268.256 460 269.264 459.608 270.034C459.262 270.712 458.712 271.262 458.034 271.608C457.264 272 456.256 272 454.24 272H351.76C349.744 272 348.736 272 347.966 271.608C347.288 271.262 346.738 270.712 346.392 270.034C346 269.264 346 268.256 346 266.24V187.76Z" fill="white"></path></g><g clip-path="url(#clip0_266_22759)"><rect x="236" y="124" width="76" height="14" rx="1.71161" fill="white"></rect><rect x="236" y="124" width="76" height="14" rx="1.71161" fill="white"></rect><path fill-rule="evenodd" clip-rule="evenodd" d="M322 138H236V136H322V138Z" fill="#FFDD33"></path></g><rect x="236.5" y="124.5" width="75" height="13" rx="1.21161" stroke="#FFDD33"></rect><g clip-path="url(#clip1_266_22759)"><rect x="116" y="218" width="78" height="16" rx="1.71161" fill="white"></rect><rect x="116" y="218" width="78" height="16" rx="1.71161" fill="white"></rect><path fill-rule="evenodd" clip-rule="evenodd" d="M202 234H116V232H202V234Z" fill="#ABA3FF"></path></g><rect x="116.5" y="218.5" width="77" height="15" rx="1.21161" stroke="#ABA3FF"></rect><g clip-path="url(#clip2_266_22759)"><rect x="120" y="146" width="78" height="16" rx="1.71161" fill="white"></rect><rect x="120" y="146" width="78" height="16" rx="1.71161" fill="white"></rect><path fill-rule="evenodd" clip-rule="evenodd" d="M206 162H120V160H206V162Z" fill="#ABA3FF"></path></g><rect x="120.5" y="146.5" width="77" height="15" rx="1.21161" stroke="#ABA3FF"></rect><g clip-path="url(#clip3_266_22759)"><rect x="236" y="146" width="76" height="16" rx="1.71161" fill="white"></rect><rect x="236" y="146" width="76" height="16" rx="1.71161" fill="white"></rect><path fill-rule="evenodd" clip-rule="evenodd" d="M322 162H236V160H322V162Z" fill="#FFDD33"></path></g><rect x="236.5" y="146.5" width="75" height="15" rx="1.21161" stroke="#FFDD33"></rect><g clip-path="url(#clip4_266_22759)"><rect x="356" y="146" width="78" height="16" rx="1.71161" fill="white"></rect><rect x="356" y="146" width="78" height="16" rx="1.71161" fill="white"></rect><path fill-rule="evenodd" clip-rule="evenodd" d="M442 162H356V160H442V162Z" fill="#8FD14F"></path></g><rect x="356.5" y="146.5" width="77" height="15" rx="1.21161" stroke="#8FD14F"></rect><g clip-path="url(#clip5_266_22759)"><rect x="356" y="218" width="78" height="16" rx="1.71161" fill="white"></rect><rect x="356" y="218" width="78" height="16" rx="1.71161" fill="white"></rect><path fill-rule="evenodd" clip-rule="evenodd" d="M442 234H356V232H442V234Z" fill="#8FD14F"></path></g><rect x="356.5" y="218.5" width="77" height="15" rx="1.21161" stroke="#8FD14F"></rect><g clip-path="url(#clip6_266_22759)"><rect x="356" y="240" width="78" height="16" rx="1.71161" fill="white"></rect><rect x="356" y="240" width="78" height="16" rx="1.71161" fill="white"></rect><path fill-rule="evenodd" clip-rule="evenodd" d="M442 256H356V254H442V256Z" fill="#8FD14F"></path></g><rect x="356.5" y="240.5" width="77" height="15" rx="1.21161" stroke="#8FD14F"></rect><g clip-path="url(#clip7_266_22759)"><rect x="116" y="240" width="78" height="16" rx="1.71161" fill="white"></rect><rect x="116" y="240" width="78" height="16" rx="1.71161" fill="white"></rect><path fill-rule="evenodd" clip-rule="evenodd" d="M202 256H116V254H202V256Z" fill="#ABA3FF"></path></g><rect x="116.5" y="240.5" width="77" height="15" rx="1.21161" stroke="#ABA3FF"></rect><path fill-rule="evenodd" clip-rule="evenodd" d="M210 103H116V101H210V103Z" fill="#A9A3F9"></path><path fill-rule="evenodd" clip-rule="evenodd" d="M330 103H236V101H330V103Z" fill="#F9DE59"></path><path fill-rule="evenodd" clip-rule="evenodd" d="M450 103H356V101H450V103Z" fill="#8FD14F"></path><g filter="url(#filter6_d_266_22759)"><rect x="36" y="88" width="65.7473" height="90.686" rx="1.08915" fill="white"></rect></g><rect x="42.8008" y="94.5342" width="36.2744" height="4.5343" rx="1.08915" fill="#E8E8EA"></rect><circle cx="45.088" cy="110.517" r="2.28723" transform="rotate(-90 45.088 110.517)" fill="#E8E8EA"></circle><rect x="48.4648" y="109.428" width="17.4265" height="2.17831" rx="1.08915" fill="#E8E8EA"></rect><circle cx="45.088" cy="124.121" r="2.28723" transform="rotate(-90 45.088 124.121)" fill="#E8E8EA"></circle><rect x="48.4648" y="123.031" width="17.4265" height="2.17831" rx="1.08915" fill="#E8E8EA"></rect><circle cx="45.088" cy="137.724" r="2.28723" transform="rotate(-90 45.088 137.724)" fill="#E8E8EA"></circle><rect x="48.4648" y="136.634" width="17.4265" height="2.17831" rx="1.08915" fill="#E8E8EA"></rect><circle cx="45.088" cy="151.325" r="2.28723" transform="rotate(-90 45.088 151.325)" fill="#E8E8EA"></circle><rect x="48.4648" y="150.235" width="17.4265" height="2.17831" rx="1.08915" fill="#E8E8EA"></rect><circle cx="45.088" cy="164.929" r="2.28723" transform="rotate(-90 45.088 164.929)" fill="#E8E8EA"></circle><rect x="48.4648" y="163.839" width="17.4265" height="2.17831" rx="1.08915" fill="#E8E8EA"></rect><defs><filter id="filter0_dd_266_22759" x="96.623" y="80.4154" width="136.754" height="112.754" filterUnits="userSpaceOnUse" color-interpolation-filters="sRGB"><feFlood flood-opacity="0" result="BackgroundImageFix"></feFlood><feColorMatrix in="SourceAlpha" type="matrix" values="0 0 0 0 0 0 0 0 0 0 0 0 0 0 0 0 0 0 127 0" result="hardAlpha"></feColorMatrix><feOffset dy="3.79232"></feOffset><feGaussianBlur stdDeviation="5.68848"></feGaussianBlur><feComposite in2="hardAlpha" operator="out"></feComposite><feColorMatrix type="matrix" values="0 0 0 0 0 0 0 0 0 0 0 0 0 0 0 0 0 0 0.1 0"></feColorMatrix><feBlend mode="normal" in2="BackgroundImageFix" result="effect1_dropShadow_266_22759"></feBlend><feColorMatrix in="SourceAlpha" type="matrix" values="0 0 0 0 0 0 0 0 0 0 0 0 0 0 0 0 0 0 127 0" result="hardAlpha"></feColorMatrix><feOffset></feOffset><feGaussianBlur stdDeviation="0.349135"></feGaussianBlur><feComposite in2="hardAlpha" operator="out"></feComposite><feColorMatrix type="matrix" values="0 0 0 0 0 0 0 0 0 0 0 0 0 0 0 0 0 0 0.03 0"></feColorMatrix><feBlend mode="normal" in2="effect1_dropShadow_266_22759" result="effect2_dropShadow_266_22759"></feBlend><feBlend mode="normal" in="SourceGraphic" in2="effect2_dropShadow_266_22759" result="shape"></feBlend></filter><filter id="filter1_dd_266_22759" x="96.623" y="174.415" width="136.754" height="112.754" filterUnits="userSpaceOnUse" color-interpolation-filters="sRGB"><feFlood flood-opacity="0" result="BackgroundImageFix"></feFlood><feColorMatrix in="SourceAlpha" type="matrix" values="0 0 0 0 0 0 0 0 0 0 0 0 0 0 0 0 0 0 127 0" result="hardAlpha"></feColorMatrix><feOffset dy="3.79232"></feOffset><feGaussianBlur stdDeviation="5.68848"></feGaussianBlur><feComposite in2="hardAlpha" operator="out"></feComposite><feColorMatrix type="matrix" values="0 0 0 0 0 0 0 0 0 0 0 0 0 0 0 0 0 0 0.1 0"></feColorMatrix><feBlend mode="normal" in2="BackgroundImageFix" result="effect1_dropShadow_266_22759"></feBlend><feColorMatrix in="SourceAlpha" type="matrix" values="0 0 0 0 0 0 0 0 0 0 0 0 0 0 0 0 0 0 127 0" result="hardAlpha"></feColorMatrix><feOffset></feOffset><feGaussianBlur stdDeviation="0.349135"></feGaussianBlur><feComposite in2="hardAlpha" operator="out"></feComposite><feColorMatrix type="matrix" values="0 0 0 0 0 0 0 0 0 0 0 0 0 0 0 0 0 0 0.03 0"></feColorMatrix><feBlend mode="normal" in2="effect1_dropShadow_266_22759" result="effect2_dropShadow_266_22759"></feBlend><feBlend mode="normal" in="SourceGraphic" in2="effect2_dropShadow_266_22759" result="shape"></feBlend></filter><filter id="filter2_dd_266_22759" x="216.623" y="80.4154" width="134.754" height="112.754" filterUnits="userSpaceOnUse" color-interpolation-filters="sRGB"><feFlood flood-opacity="0" result="BackgroundImageFix"></feFlood><feColorMatrix in="SourceAlpha" type="matrix" values="0 0 0 0 0 0 0 0 0 0 0 0 0 0 0 0 0 0 127 0" result="hardAlpha"></feColorMatrix><feOffset dy="3.79232"></feOffset><feGaussianBlur stdDeviation="5.68848"></feGaussianBlur><feComposite in2="hardAlpha" operator="out"></feComposite><feColorMatrix type="matrix" values="0 0 0 0 0 0 0 0 0 0 0 0 0 0 0 0 0 0 0.1 0"></feColorMatrix><feBlend mode="normal" in2="BackgroundImageFix" result="effect1_dropShadow_266_22759"></feBlend><feColorMatrix in="SourceAlpha" type="matrix" values="0 0 0 0 0 0 0 0 0 0 0 0 0 0 0 0 0 0 127 0" result="hardAlpha"></feColorMatrix><feOffset></feOffset><feGaussianBlur stdDeviation="0.349135"></feGaussianBlur><feComposite in2="hardAlpha" operator="out"></feComposite><feColorMatrix type="matrix" values="0 0 0 0 0 0 0 0 0 0 0 0 0 0 0 0 0 0 0.03 0"></feColorMatrix><feBlend mode="normal" in2="effect1_dropShadow_266_22759" result="effect2_dropShadow_266_22759"></feBlend><feBlend mode="normal" in="SourceGraphic" in2="effect2_dropShadow_266_22759" result="shape"></feBlend></filter><filter id="filter3_dd_266_22759" x="216.623" y="174.415" width="134.754" height="112.754" filterUnits="userSpaceOnUse" color-interpolation-filters="sRGB"><feFlood flood-opacity="0" result="BackgroundImageFix"></feFlood><feColorMatrix in="SourceAlpha" type="matrix" values="0 0 0 0 0 0 0 0 0 0 0 0 0 0 0 0 0 0 127 0" result="hardAlpha"></feColorMatrix><feOffset dy="3.79232"></feOffset><feGaussianBlur stdDeviation="5.68848"></feGaussianBlur><feComposite in2="hardAlpha" operator="out"></feComposite><feColorMatrix type="matrix" values="0 0 0 0 0 0 0 0 0 0 0 0 0 0 0 0 0 0 0.1 0"></feColorMatrix><feBlend mode="normal" in2="BackgroundImageFix" result="effect1_dropShadow_266_22759"></feBlend><feColorMatrix in="SourceAlpha" type="matrix" values="0 0 0 0 0 0 0 0 0 0 0 0 0 0 0 0 0 0 127 0" result="hardAlpha"></feColorMatrix><feOffset></feOffset><feGaussianBlur stdDeviation="0.349135"></feGaussianBlur><feComposite in2="hardAlpha" operator="out"></feComposite><feColorMatrix type="matrix" values="0 0 0 0 0 0 0 0 0 0 0 0 0 0 0 0 0 0 0.03 0"></feColorMatrix><feBlend mode="normal" in2="effect1_dropShadow_266_22759" result="effect2_dropShadow_266_22759"></feBlend><feBlend mode="normal" in="SourceGraphic" in2="effect2_dropShadow_266_22759" result="shape"></feBlend></filter><filter id="filter4_dd_266_22759" x="334.623" y="80.4154" width="136.754" height="112.754" filterUnits="userSpaceOnUse" color-interpolation-filters="sRGB"><feFlood flood-opacity="0" result="BackgroundImageFix"></feFlood><feColorMatrix in="SourceAlpha" type="matrix" values="0 0 0 0 0 0 0 0 0 0 0 0 0 0 0 0 0 0 127 0" result="hardAlpha"></feColorMatrix><feOffset dy="3.79232"></feOffset><feGaussianBlur stdDeviation="5.68848"></feGaussianBlur><feComposite in2="hardAlpha" operator="out"></feComposite><feColorMatrix type="matrix" values="0 0 0 0 0 0 0 0 0 0 0 0 0 0 0 0 0 0 0.1 0"></feColorMatrix><feBlend mode="normal" in2="BackgroundImageFix" result="effect1_dropShadow_266_22759"></feBlend><feColorMatrix in="SourceAlpha" type="matrix" values="0 0 0 0 0 0 0 0 0 0 0 0 0 0 0 0 0 0 127 0" result="hardAlpha"></feColorMatrix><feOffset></feOffset><feGaussianBlur stdDeviation="0.349135"></feGaussianBlur><feComposite in2="hardAlpha" operator="out"></feComposite><feColorMatrix type="matrix" values="0 0 0 0 0 0 0 0 0 0 0 0 0 0 0 0 0 0 0.03 0"></feColorMatrix><feBlend mode="normal" in2="effect1_dropShadow_266_22759" result="effect2_dropShadow_266_22759"></feBlend><feBlend mode="normal" in="SourceGraphic" in2="effect2_dropShadow_266_22759" result="shape"></feBlend></filter><filter id="filter5_dd_266_22759" x="334.623" y="174.415" width="136.754" height="112.754" filterUnits="userSpaceOnUse" color-interpolation-filters="sRGB"><feFlood flood-opacity="0" result="BackgroundImageFix"></feFlood><feColorMatrix in="SourceAlpha" type="matrix" values="0 0 0 0 0 0 0 0 0 0 0 0 0 0 0 0 0 0 127 0" result="hardAlpha"></feColorMatrix><feOffset dy="3.79232"></feOffset><feGaussianBlur stdDeviation="5.68848"></feGaussianBlur><feComposite in2="hardAlpha" operator="out"></feComposite><feColorMatrix type="matrix" values="0 0 0 0 0 0 0 0 0 0 0 0 0 0 0 0 0 0 0.1 0"></feColorMatrix><feBlend mode="normal" in2="BackgroundImageFix" result="effect1_dropShadow_266_22759"></feBlend><feColorMatrix in="SourceAlpha" type="matrix" values="0 0 0 0 0 0 0 0 0 0 0 0 0 0 0 0 0 0 127 0" result="hardAlpha"></feColorMatrix><feOffset></feOffset><feGaussianBlur stdDeviation="0.349135"></feGaussianBlur><feComposite in2="hardAlpha" operator="out"></feComposite><feColorMatrix type="matrix" values="0 0 0 0 0 0 0 0 0 0 0 0 0 0 0 0 0 0 0.03 0"></feColorMatrix><feBlend mode="normal" in2="effect1_dropShadow_266_22759" result="effect2_dropShadow_266_22759"></feBlend><feBlend mode="normal" in="SourceGraphic" in2="effect2_dropShadow_266_22759" result="shape"></feBlend></filter><filter id="filter6_d_266_22759" x="28.6236" y="85.5412" width="80.4998" height="105.438" filterUnits="userSpaceOnUse" color-interpolation-filters="sRGB"><feFlood flood-opacity="0" result="BackgroundImageFix"></feFlood><feColorMatrix in="SourceAlpha" type="matrix" values="0 0 0 0 0 0 0 0 0 0 0 0 0 0 0 0 0 0 127 0" result="hardAlpha"></feColorMatrix><feMorphology radius="7.37636" operator="erode" in="SourceAlpha" result="effect1_dropShadow_266_22759"></feMorphology><feOffset dy="4.91758"></feOffset><feGaussianBlur stdDeviation="7.37636"></feGaussianBlur><feComposite in2="hardAlpha" operator="out"></feComposite><feColorMatrix type="matrix" values="0 0 0 0 0 0 0 0 0 0 0 0 0 0 0 0 0 0 0.1 0"></feColorMatrix><feBlend mode="normal" in2="BackgroundImageFix" result="effect1_dropShadow_266_22759"></feBlend><feBlend mode="normal" in="SourceGraphic" in2="effect1_dropShadow_266_22759" result="shape"></feBlend></filter><clipPath id="clip0_266_22759"><rect x="236" y="124" width="76" height="14" rx="1.71161" fill="white"></rect></clipPath><clipPath id="clip1_266_22759"><rect x="116" y="218" width="78" height="16" rx="1.71161" fill="white"></rect></clipPath><clipPath id="clip2_266_22759"><rect x="120" y="146" width="78" height="16" rx="1.71161" fill="white"></rect></clipPath><clipPath id="clip3_266_22759"><rect x="236" y="146" width="76" height="16" rx="1.71161" fill="white"></rect></clipPath><clipPath id="clip4_266_22759"><rect x="356" y="146" width="78" height="16" rx="1.71161" fill="white"></rect></clipPath><clipPath id="clip5_266_22759"><rect x="356" y="218" width="78" height="16" rx="1.71161" fill="white"></rect></clipPath><clipPath id="clip6_266_22759"><rect x="356" y="240" width="78" height="16" rx="1.71161" fill="white"></rect></clipPath><clipPath id="clip7_266_22759"><rect x="116" y="240" width="78" height="16" rx="1.71161" fill="white"></rect></clipPath></defs></svg>