<svg width="100%" height="100%" viewBox="0 0 496 360" fill="none" xmlns="http://www.w3.org/2000/svg"><rect width="496" height="360" fill="#F3F4F8"></rect><path fill-rule="evenodd" clip-rule="evenodd" d="M308.5 165.64H186.5C177.741 165.64 170.64 172.741 170.64 181.5C170.64 190.259 177.741 197.36 186.5 197.36H308.5C317.259 197.36 324.36 190.259 324.36 181.5C324.36 172.741 317.259 165.64 308.5 165.64ZM186.5 151C169.655 151 156 164.655 156 181.5C156 198.345 169.655 212 186.5 212H308.5C325.345 212 339 198.345 339 181.5C339 164.655 325.345 151 308.5 151H186.5Z" fill="#A9A3F9"></path><path fill-rule="evenodd" clip-rule="evenodd" d="M422.166 139.212C417.152 140.477 408.598 144.335 396.925 155.715C384.664 167.667 373.065 175.799 363.25 181.105C371.819 184.867 381.232 190.704 390.033 199.461C406.497 215.842 426.714 220.922 434 221.423L432.998 236C422.793 235.298 399.078 229.065 379.737 209.821C363.281 193.448 344.744 189.681 338.587 189.681L338 175.094C343.216 174.673 362.799 168.583 386.736 145.249C399.755 132.558 410.493 127.089 418.596 125.044C422.645 124.023 425.947 123.88 428.424 124.074C429.656 124.17 430.666 124.347 431.445 124.531C431.833 124.623 432.164 124.716 432.434 124.801C432.569 124.843 432.689 124.884 432.794 124.921C432.847 124.939 432.895 124.957 432.94 124.973L433.005 124.998L433.035 125.009L433.049 125.015C433.056 125.017 433.063 125.02 430.413 131.827C427.762 138.634 427.769 138.637 427.776 138.639L427.789 138.645L427.815 138.655L427.865 138.673C427.896 138.685 427.924 138.695 427.95 138.704C428.001 138.722 428.04 138.735 428.067 138.743C428.099 138.753 428.115 138.758 428.115 138.758C428.115 138.758 428.107 138.755 428.091 138.752C428.013 138.733 427.745 138.676 427.289 138.64C426.39 138.57 424.677 138.578 422.166 139.212Z" fill="#85B8FF"></path><path fill-rule="evenodd" clip-rule="evenodd" d="M72.8338 139.212C77.8484 140.477 86.4019 144.335 98.0751 155.715C110.336 167.667 121.935 175.799 131.75 181.105C123.181 184.867 113.768 190.704 104.967 199.461C88.5028 215.842 68.2855 220.922 61 221.423L62.0018 236C72.2069 235.298 95.9221 229.065 115.263 209.821C131.719 193.448 150.256 189.681 156.413 189.681L157 175.094C151.784 174.673 132.201 168.583 108.264 145.249C95.245 132.558 84.5073 127.089 76.4039 125.044C72.3554 124.023 69.053 123.88 66.5762 124.074C65.3442 124.17 64.3343 124.347 63.5555 124.531C63.1666 124.623 62.8365 124.716 62.5662 124.801C62.4311 124.843 62.3109 124.884 62.2059 124.921C62.1535 124.939 62.1048 124.957 62.0599 124.973L61.9953 124.998L61.9652 125.009L61.9507 125.015C61.9436 125.017 61.9365 125.02 64.5874 131.827C67.2383 138.634 67.2314 138.637 67.2245 138.639L67.2109 138.645L67.1846 138.655L67.1354 138.673C67.104 138.685 67.0756 138.695 67.0501 138.704C66.9992 138.722 66.9601 138.735 66.9327 138.743C66.9008 138.753 66.885 138.758 66.885 138.758C66.885 138.758 66.8931 138.755 66.9095 138.752C66.9868 138.733 67.2549 138.676 67.7108 138.64C68.61 138.57 70.3233 138.578 72.8338 139.212Z" fill="#88CC6A"></path></svg>